<svg xmlns="http://www.w3.org/2000/svg" version="1.1" xmlns:xlink="http://www.w3.org/1999/xlink" xmlns:svgjs="http://svgjs.dev/svgjs" width="1000" height="1436" viewBox="0 0 1000 1436"><g transform="matrix(1,0,0,1,0.7829777800209285,0.5813765182185762)"><svg viewBox="0 0 172 247" data-background-color="#ffffff" preserveAspectRatio="xMidYMid meet" height="1436" width="1000" xmlns="http://www.w3.org/2000/svg" xmlns:xlink="http://www.w3.org/1999/xlink"><g id="tight-bounds" transform="matrix(1,0,0,1,-0.13467203173860298,-0.09999999999999432)"><svg viewBox="0 0 172.26933967072725 247.2" height="247.2" width="172.26933967072725"><g><svg></svg></g><g><svg viewBox="0 0 172.26933967072725 247.2" height="247.2" width="172.26933967072725"><g transform="matrix(1,0,0,1,0,47.215199999999996)"><svg viewBox="0 0 172.26933967072725 152.7696" height="152.7696" width="172.26933967072725"><g><svg viewBox="0 0 172.26933967072725 152.7696" height="152.7696" width="172.26933967072725"><g><svg viewBox="0 0 244.05185229854445 216.4268112141787" height="152.7696" width="172.26933967072725"><g><svg viewBox="0 0 244.05185229854445 216.4268112141787" height="216.4268112141787" width="244.05185229854445"><g id="textblocktransform"><svg viewBox="0 0 244.05185229854445 216.4268112141787" height="216.4268112141787" width="244.05185229854445" id="textblock"><g><svg viewBox="0 0 244.05185229854445 151.825483872" height="151.825483872" width="244.05185229854445"><g transform="matrix(1,0,0,1,0,0)"><svg width="244.05185229854445" viewBox="1.9500000476837158 -34.900001525878906 56.099998474121094 34.900001525878906" height="151.825483872" data-palette-color="#111111"><path d="M21.55 0L21.55-15.55 21.95-25.3 21.5-25.3 15-7.35 8.5-25.3 8.05-25.3 8.45-15.55 8.45 0 1.95 0 1.95-34.9 10.8-34.9 15.1-23.15 15.5-23.15 19.8-34.9 28.05-34.9 28.05 0 21.55 0ZM51.55 0L51.55-15.55 51.95-25.3 51.5-25.3 45-7.35 38.5-25.3 38.05-25.3 38.45-15.55 38.45 0 31.95 0 31.95-34.9 40.8-34.9 45.1-23.15 45.5-23.15 49.8-34.9 58.05-34.9 58.05 0 51.55 0Z" opacity="1" transform="matrix(1,0,0,1,0,0)" fill="#b4bdc3" class="wordmark-text-0" data-fill-palette-color="primary" id="text-0"></path></svg></g></svg></g><g transform="matrix(1,0,0,1,0,187.66783680256628)"><svg viewBox="0 0 244.05185229854445 28.75897441161244" height="28.75897441161244" width="244.05185229854445"><g transform="matrix(1,0,0,1,0,0)"><svg width="244.05185229854445" viewBox="4.699999809265137 -35.5 305.4700012207031 36" height="28.75897441161244" data-palette-color="#111111"><path d="M6.75 0L5.85 0Q5.35 0 5.03-0.3 4.7-0.6 4.7-1.1L4.7-1.1 4.7-33.85Q4.7-34.4 5.03-34.7 5.35-35 5.85-35L5.85-35 7.1-35Q7.6-35 7.85-34.75 8.1-34.5 8.15-34.35L8.15-34.35 19.5-12.25 30.9-34.35Q31-34.5 31.23-34.75 31.45-35 31.95-35L31.95-35 33.15-35Q33.7-35 34-34.7 34.3-34.4 34.3-33.85L34.3-33.85 34.3-1.1Q34.3-0.6 34-0.3 33.7 0 33.15 0L33.15 0 32.25 0Q31.75 0 31.45-0.3 31.15-0.6 31.15-1.1L31.15-1.1 31.15-28.2 21.6-9.4Q21.4-8.9 21.03-8.65 20.65-8.4 20.05-8.4L20.05-8.4 18.95-8.4Q18.35-8.4 18-8.65 17.65-8.9 17.4-9.4L17.4-9.4 7.85-28.2 7.85-1.1Q7.85-0.6 7.55-0.3 7.25 0 6.75 0L6.75 0ZM52.95 0.5L52.95 0.5Q49.35 0.5 46.92-1 44.5-2.5 43.22-5.1 41.95-7.7 41.85-10.9L41.85-10.9Q41.8-11.65 41.8-13 41.8-14.35 41.85-15.1L41.85-15.1Q41.95-18.35 43.22-20.93 44.5-23.5 46.92-25 49.35-26.5 52.95-26.5L52.95-26.5Q56.55-26.5 58.97-25 61.4-23.5 62.67-20.93 63.95-18.35 64.05-15.1L64.05-15.1Q64.1-14.35 64.1-13 64.1-11.65 64.05-10.9L64.05-10.9Q63.95-7.7 62.67-5.1 61.4-2.5 58.97-1 56.55 0.5 52.95 0.5ZM52.95-2.4L52.95-2.4Q56.45-2.4 58.65-4.65 60.85-6.9 61-11.15L61-11.15Q61.05-11.9 61.05-13 61.05-14.1 61-14.85L61-14.85Q60.85-19.15 58.65-21.38 56.45-23.6 52.95-23.6L52.95-23.6Q49.45-23.6 47.25-21.38 45.05-19.15 44.9-14.85L44.9-14.85Q44.85-14.1 44.85-13 44.85-11.9 44.9-11.15L44.9-11.15Q45.05-6.9 47.25-4.65 49.45-2.4 52.95-2.4ZM82.45 0.5L82.45 0.5Q79.35 0.5 77.32-0.63 75.3-1.75 74.05-3.45L74.05-3.45 74.05-1.1Q74.05-0.6 73.75-0.3 73.45 0 72.95 0L72.95 0 72.1 0Q71.6 0 71.3-0.3 71-0.6 71-1.1L71-1.1 71-34.4Q71-34.9 71.3-35.2 71.6-35.5 72.1-35.5L72.1-35.5 72.95-35.5Q73.45-35.5 73.75-35.2 74.05-34.9 74.05-34.4L74.05-34.4 74.05-22.55Q75.3-24.2 77.32-25.35 79.35-26.5 82.45-26.5L82.45-26.5Q85.4-26.5 87.4-25.45 89.4-24.4 90.65-22.65 91.9-20.9 92.5-18.75 93.1-16.6 93.15-14.4L93.15-14.4Q93.2-13.65 93.2-13 93.2-12.35 93.15-11.6L93.15-11.6Q93.1-9.4 92.5-7.25 91.9-5.1 90.65-3.35 89.4-1.6 87.4-0.55 85.4 0.5 82.45 0.5ZM82.15-2.4L82.15-2.4Q85.1-2.4 86.8-3.7 88.5-5 89.25-7.1 90-9.2 90.1-11.6L90.1-11.6Q90.15-13 90.1-14.4L90.1-14.4Q90-16.8 89.25-18.9 88.5-21 86.8-22.3 85.1-23.6 82.15-23.6L82.15-23.6Q79.4-23.6 77.62-22.3 75.85-21 74.97-19.05 74.1-17.1 74.05-15.1L74.05-15.1Q74-14.35 74-13.15 74-11.95 74.05-11.2L74.05-11.2Q74.15-9.15 74.97-7.13 75.8-5.1 77.55-3.75 79.3-2.4 82.15-2.4ZM101.89 0L101.04 0Q100.54 0 100.24-0.3 99.94-0.6 99.94-1.1L99.94-1.1 99.94-24.9Q99.94-25.4 100.24-25.7 100.54-26 101.04-26L101.04-26 101.89-26Q102.39-26 102.69-25.7 102.99-25.4 102.99-24.9L102.99-24.9 102.99-1.1Q102.99-0.6 102.69-0.3 102.39 0 101.89 0L101.89 0ZM102.39-31.35L100.49-31.35Q99.99-31.35 99.69-31.65 99.39-31.95 99.39-32.45L99.39-32.45 99.39-34.35Q99.39-34.85 99.69-35.18 99.99-35.5 100.49-35.5L100.49-35.5 102.39-35.5Q102.89-35.5 103.22-35.18 103.54-34.85 103.54-34.35L103.54-34.35 103.54-32.45Q103.54-31.95 103.22-31.65 102.89-31.35 102.39-31.35L102.39-31.35ZM113.09 0L112.24 0Q111.74 0 111.44-0.3 111.14-0.6 111.14-1.1L111.14-1.1 111.14-34.4Q111.14-34.9 111.44-35.2 111.74-35.5 112.24-35.5L112.24-35.5 113.09-35.5Q113.59-35.5 113.89-35.2 114.19-34.9 114.19-34.4L114.19-34.4 114.19-1.1Q114.19-0.6 113.89-0.3 113.59 0 113.09 0L113.09 0ZM131.99 0.5L131.99 0.5Q127.14 0.5 124.29-2.68 121.44-5.85 121.04-11L121.04-11Q120.99-11.75 120.99-13 120.99-14.25 121.04-15L121.04-15Q121.29-18.4 122.64-21 123.99-23.6 126.36-25.05 128.74-26.5 131.99-26.5L131.99-26.5Q135.49-26.5 137.94-24.95 140.39-23.4 141.71-20.5 143.04-17.6 143.04-13.6L143.04-13.6 143.04-12.85Q143.04-12.35 142.71-12.05 142.39-11.75 141.89-11.75L141.89-11.75 124.09-11.75Q124.09-11.75 124.09-11.55 124.09-11.35 124.09-11.25L124.09-11.25Q124.19-9 125.14-6.98 126.09-4.95 127.84-3.68 129.59-2.4 131.99-2.4L131.99-2.4Q134.14-2.4 135.56-3.05 136.99-3.7 137.84-4.48 138.69-5.25 138.94-5.65L138.94-5.65Q139.39-6.3 139.64-6.43 139.89-6.55 140.44-6.55L140.44-6.55 141.24-6.55Q141.69-6.55 142.01-6.28 142.34-6 142.29-5.55L142.29-5.55Q142.24-4.85 141.51-3.83 140.79-2.8 139.46-1.8 138.14-0.8 136.24-0.15 134.34 0.5 131.99 0.5ZM124.09-14.75L124.09-14.55 139.99-14.55 139.99-14.75Q139.99-17.25 139.04-19.25 138.09-21.25 136.29-22.43 134.49-23.6 131.99-23.6L131.99-23.6Q129.49-23.6 127.71-22.43 125.94-21.25 125.01-19.25 124.09-17.25 124.09-14.75L124.09-14.75ZM165.23 0L164.33 0Q163.83 0 163.51-0.3 163.18-0.6 163.18-1.1L163.18-1.1 163.18-33.85Q163.18-34.4 163.51-34.7 163.83-35 164.33-35L164.33-35 165.58-35Q166.08-35 166.33-34.75 166.58-34.5 166.63-34.35L166.63-34.35 177.98-12.25 189.38-34.35Q189.48-34.5 189.71-34.75 189.93-35 190.43-35L190.43-35 191.63-35Q192.18-35 192.48-34.7 192.78-34.4 192.78-33.85L192.78-33.85 192.78-1.1Q192.78-0.6 192.48-0.3 192.18 0 191.63 0L191.63 0 190.73 0Q190.23 0 189.93-0.3 189.63-0.6 189.63-1.1L189.63-1.1 189.63-28.2 180.08-9.4Q179.88-8.9 179.51-8.65 179.13-8.4 178.53-8.4L178.53-8.4 177.43-8.4Q176.83-8.4 176.48-8.65 176.13-8.9 175.88-9.4L175.88-9.4 166.33-28.2 166.33-1.1Q166.33-0.6 166.03-0.3 165.73 0 165.23 0L165.23 0ZM208.53 0.5L208.53 0.5Q206.13 0.5 204.11-0.5 202.08-1.5 200.83-3.18 199.58-4.85 199.58-6.95L199.58-6.95Q199.58-10.35 202.33-12.4 205.08-14.45 209.48-15.05L209.48-15.05 217.38-16.15 217.38-17.9Q217.38-20.55 215.76-22.08 214.13-23.6 210.58-23.6L210.58-23.6Q207.98-23.6 206.38-22.58 204.78-21.55 204.18-19.9L204.18-19.9Q203.93-19.15 203.23-19.15L203.23-19.15 202.43-19.15Q201.83-19.15 201.58-19.48 201.33-19.8 201.33-20.25L201.33-20.25Q201.33-20.95 201.86-22 202.38-23.05 203.48-24.08 204.58-25.1 206.33-25.8 208.08-26.5 210.58-26.5L210.58-26.5Q213.53-26.5 215.46-25.7 217.38-24.9 218.46-23.63 219.53-22.35 219.98-20.8 220.43-19.25 220.43-17.75L220.43-17.75 220.43-1.1Q220.43-0.6 220.13-0.3 219.83 0 219.33 0L219.33 0 218.48 0Q217.98 0 217.68-0.3 217.38-0.6 217.38-1.1L217.38-1.1 217.38-3.45Q216.78-2.55 215.68-1.65 214.58-0.75 212.86-0.13 211.13 0.5 208.53 0.5ZM209.03-2.4L209.03-2.4Q211.33-2.4 213.23-3.4 215.13-4.4 216.26-6.48 217.38-8.55 217.38-11.7L217.38-11.7 217.38-13.4 210.93-12.5Q206.83-11.95 204.73-10.6 202.63-9.25 202.63-7.2L202.63-7.2Q202.63-5.55 203.58-4.5 204.53-3.45 206.01-2.93 207.48-2.4 209.03-2.4ZM230.23 0L229.43 0Q228.93 0 228.63-0.3 228.33-0.6 228.33-1.1L228.33-1.1 228.33-24.85Q228.33-25.35 228.63-25.68 228.93-26 229.43-26L229.43-26 230.23-26Q230.73-26 231.05-25.68 231.38-25.35 231.38-24.85L231.38-24.85 231.38-22.55Q232.28-24.3 233.98-25.15 235.68-26 238.18-26L238.18-26 240.03-26Q240.53-26 240.83-25.7 241.13-25.4 241.13-24.9L241.13-24.9 241.13-24.2Q241.13-23.7 240.83-23.4 240.53-23.1 240.03-23.1L240.03-23.1 237.88-23.1Q234.88-23.1 233.13-21.35 231.38-19.6 231.38-16.6L231.38-16.6 231.38-1.1Q231.38-0.6 231.05-0.3 230.73 0 230.23 0L230.23 0ZM247.73 0L246.88 0Q246.38 0 246.08-0.3 245.78-0.6 245.78-1.1L245.78-1.1 245.78-34.4Q245.78-34.9 246.08-35.2 246.38-35.5 246.88-35.5L246.88-35.5 247.73-35.5Q248.23-35.5 248.53-35.2 248.83-34.9 248.83-34.4L248.83-34.4 248.83-16.7 259.98-25.15Q260.68-25.7 261-25.85 261.33-26 262.08-26L262.08-26 263.03-26Q263.48-26 263.75-25.73 264.03-25.45 264.03-25L264.03-25Q264.03-24.8 263.9-24.53 263.78-24.25 263.38-24L263.38-24 250.73-14.4 264.63-2Q265.28-1.4 265.28-1L265.28-1Q265.28-0.55 265-0.28 264.73 0 264.28 0L264.28 0 263.48 0Q262.73 0 262.4-0.13 262.08-0.25 261.38-0.85L261.38-0.85 248.83-12 248.83-1.1Q248.83-0.6 248.53-0.3 248.23 0 247.73 0L247.73 0ZM279.72 0.5L279.72 0.5Q274.87 0.5 272.02-2.68 269.17-5.85 268.77-11L268.77-11Q268.72-11.75 268.72-13 268.72-14.25 268.77-15L268.77-15Q269.02-18.4 270.37-21 271.72-23.6 274.1-25.05 276.47-26.5 279.72-26.5L279.72-26.5Q283.22-26.5 285.67-24.95 288.12-23.4 289.45-20.5 290.77-17.6 290.77-13.6L290.77-13.6 290.77-12.85Q290.77-12.35 290.45-12.05 290.12-11.75 289.62-11.75L289.62-11.75 271.82-11.75Q271.82-11.75 271.82-11.55 271.82-11.35 271.82-11.25L271.82-11.25Q271.92-9 272.87-6.98 273.82-4.95 275.57-3.68 277.32-2.4 279.72-2.4L279.72-2.4Q281.87-2.4 283.3-3.05 284.72-3.7 285.57-4.48 286.42-5.25 286.67-5.65L286.67-5.65Q287.12-6.3 287.37-6.43 287.62-6.55 288.17-6.55L288.17-6.55 288.97-6.55Q289.42-6.55 289.75-6.28 290.07-6 290.02-5.55L290.02-5.55Q289.97-4.85 289.25-3.83 288.52-2.8 287.2-1.8 285.87-0.8 283.97-0.15 282.07 0.5 279.72 0.5ZM271.82-14.75L271.82-14.55 287.72-14.55 287.72-14.75Q287.72-17.25 286.77-19.25 285.82-21.25 284.02-22.43 282.22-23.6 279.72-23.6L279.72-23.6Q277.22-23.6 275.45-22.43 273.67-21.25 272.75-19.25 271.82-17.25 271.82-14.75L271.82-14.75ZM309.07 0L306.12 0Q303.52 0 302.02-1.1 300.52-2.2 299.92-4.1 299.32-6 299.32-8.35L299.32-8.35 299.32-23.1 295.42-23.1Q294.92-23.1 294.62-23.4 294.32-23.7 294.32-24.2L294.32-24.2 294.32-24.9Q294.32-25.4 294.62-25.7 294.92-26 295.42-26L295.42-26 299.32-26 299.32-34.4Q299.32-34.9 299.62-35.2 299.92-35.5 300.42-35.5L300.42-35.5 301.27-35.5Q301.77-35.5 302.07-35.2 302.37-34.9 302.37-34.4L302.37-34.4 302.37-26 308.57-26Q309.07-26 309.37-25.7 309.67-25.4 309.67-24.9L309.67-24.9 309.67-24.2Q309.67-23.7 309.37-23.4 309.07-23.1 308.57-23.1L308.57-23.1 302.37-23.1 302.37-8.55Q302.37-5.9 303.25-4.4 304.12-2.9 306.37-2.9L306.37-2.9 309.07-2.9Q309.57-2.9 309.87-2.6 310.17-2.3 310.17-1.8L310.17-1.8 310.17-1.1Q310.17-0.6 309.87-0.3 309.57 0 309.07 0L309.07 0Z" opacity="1" transform="matrix(1,0,0,1,0,0)" fill="#b4bdc3" class="slogan-text-1" data-fill-palette-color="secondary" id="text-1"></path></svg></g></svg></g></svg></g></svg></g><g></g></svg></g></svg></g></svg></g><path d="M0 41.215L0 1 172.269 1 172.269 41.215 162.605 41.215 162.605 10.665 9.665 10.665 9.665 41.215 0 41.215M0 205.985L0 246.2 172.269 246.2 172.269 205.985 162.605 205.985 162.605 236.535 9.665 236.535 9.665 205.985 0 205.985" fill="#b4bdc3" stroke="transparent" data-fill-palette-color="primary"></path></svg></g><defs></defs></svg><rect width="172.26933967072725" height="247.2" fill="none" stroke="none" visibility="hidden"></rect></g></svg></g></svg>